<svg width="32" height="33" viewBox="0 0 32 33" fill="none" xmlns="http://www.w3.org/2000/svg">
<path opacity="0.3" d="M21.3603 3.1307L10.5071 3.18943C6.11834 3.21317 2.5798 6.79021 2.60354 11.179L2.66183 21.9521C2.68558 26.3409 6.26262 29.8794 10.6514 29.8557L21.5045 29.797C25.8933 29.7732 29.4319 26.1962 29.4081 21.8074L29.3498 11.0343C29.3261 6.6455 25.749 3.10696 21.3603 3.1307Z" fill="#006CEA"/>
<path d="M16.0003 21.4467C18.7985 21.4467 21.0669 19.1783 21.0669 16.38C21.0669 13.5818 18.7985 11.3134 16.0003 11.3134C13.202 11.3134 10.9336 13.5818 10.9336 16.38C10.9336 19.1783 13.202 21.4467 16.0003 21.4467Z" fill="#006CEA"/>
<path d="M24.6654 29.1267C24.0344 27.3319 22.8617 25.7772 21.3092 24.6774C19.7568 23.5776 17.9012 22.9869 15.9987 22.9869C14.0962 22.9869 12.2406 23.5776 10.6882 24.6774C9.13572 25.7772 7.96304 27.3319 7.33203 29.1267C8.37776 29.6042 9.51584 29.8455 10.6654 29.8334H21.5054C22.5955 29.8127 23.6703 29.5724 24.6654 29.1267Z" fill="#006CEA"/>
</svg>
