<svg width="24" height="24" viewBox="0 0 24 24" fill="none" xmlns="http://www.w3.org/2000/svg">
<path d="M11.2006 8.54001L10.4906 7.82001C10.3044 7.63265 10.1998 7.3792 10.1998 7.11501C10.1998 6.85082 10.3044 6.59737 10.4906 6.41001L13.4206 3.47001C13.915 2.97032 14.5092 2.58049 15.1645 2.32596C15.8197 2.07143 16.5212 1.95792 17.2233 1.99284C17.9254 2.02775 18.6122 2.21031 19.2389 2.52859C19.8657 2.84687 20.4183 3.29373 20.8606 3.84001C21.6442 4.84559 22.0285 6.10521 21.9399 7.37692C21.8513 8.64863 21.296 9.84278 20.3806 10.73L17.5906 13.51C17.4033 13.6963 17.1498 13.8008 16.8856 13.8008C16.6215 13.8008 16.368 13.6963 16.1806 13.51L15.4606 12.8C15.3669 12.707 15.2925 12.5964 15.2417 12.4746C15.191 12.3527 15.1648 12.222 15.1648 12.09C15.1648 11.958 15.191 11.8273 15.2417 11.7054C15.2925 11.5836 15.3669 11.473 15.4606 11.38L18.4006 8.45001C18.6106 8.24389 18.7726 7.99396 18.8749 7.71806C18.9772 7.44216 19.0174 7.14708 18.9926 6.85387C18.9677 6.56066 18.8785 6.27654 18.7312 6.02177C18.584 5.76701 18.3823 5.54788 18.1406 5.38001C17.7301 5.11201 17.239 4.99536 16.7517 5.05011C16.2645 5.10485 15.8115 5.32757 15.4706 5.68001L12.6206 8.54001C12.5277 8.63374 12.4171 8.70813 12.2952 8.7589C12.1734 8.80967 12.0426 8.83581 11.9106 8.83581C11.7786 8.83581 11.6479 8.80967 11.5261 8.7589C11.4042 8.70813 11.2936 8.63374 11.2006 8.54001ZM11.2006 15.6L8.53064 18.32C8.18977 18.6724 7.7368 18.8952 7.24956 18.9499C6.76232 19.0047 6.27122 18.888 5.86064 18.62C5.61895 18.4521 5.41729 18.233 5.27003 17.9782C5.12277 17.7235 5.03354 17.4394 5.00871 17.1462C4.98388 16.8529 5.02405 16.5579 5.12637 16.282C5.22869 16.0061 5.39063 15.7561 5.60064 15.55L8.40064 12.76C8.49436 12.667 8.56876 12.5564 8.61953 12.4346C8.6703 12.3127 8.69643 12.182 8.69643 12.05C8.69643 11.918 8.6703 11.7873 8.61953 11.6654C8.56876 11.5436 8.49436 11.433 8.40064 11.34L7.68064 10.62C7.49327 10.4338 7.23982 10.3292 6.97564 10.3292C6.71145 10.3292 6.458 10.4338 6.27064 10.62L3.62064 13.27C2.70525 14.1572 2.14993 15.3514 2.06134 16.6231C1.97274 17.8948 2.35712 19.1544 3.14064 20.16C3.58301 20.7063 4.1356 21.1531 4.76235 21.4714C5.38909 21.7897 6.07591 21.9723 6.77797 22.0072C7.48004 22.0421 8.18158 21.9286 8.83681 21.6741C9.49204 21.4195 10.0862 21.0297 10.5806 20.53L13.3806 17.73C13.5669 17.5426 13.6714 17.2892 13.6714 17.025C13.6714 16.7608 13.5669 16.5074 13.3806 16.32L12.6606 15.6C12.5677 15.5063 12.4571 15.4319 12.3352 15.3811C12.2134 15.3303 12.0826 15.3042 11.9506 15.3042C11.8186 15.3042 11.6879 15.3303 11.5661 15.3811C11.4442 15.4319 11.3336 15.5063 11.2406 15.6H11.2006Z" fill="#3E97FF"/>
<path d="M5.35052 8.28H5.12052L3.00052 7.59C2.8125 7.528 2.6561 7.39509 2.56458 7.21953C2.47307 7.04398 2.45367 6.83964 2.51052 6.65C2.53895 6.55538 2.58604 6.46741 2.64901 6.39128C2.71198 6.31515 2.78956 6.2524 2.87717 6.20673C2.96478 6.16106 3.06064 6.1334 3.15912 6.12537C3.25759 6.11734 3.35667 6.12912 3.45052 6.16L5.55052 6.82C5.71784 6.87688 5.8597 6.99102 5.95107 7.14229C6.04245 7.29355 6.07748 7.47223 6.04998 7.6468C6.02248 7.82137 5.93422 7.98062 5.80076 8.09647C5.6673 8.21231 5.49722 8.27731 5.32052 8.28H5.35052Z" fill="#D8D8E5"/>
<path d="M8.45078 5.31C8.27182 5.30753 8.09947 5.24199 7.9641 5.12491C7.82873 5.00783 7.73902 4.84674 7.71078 4.67L7.51078 3.23C7.48028 3.03242 7.52952 2.83081 7.64767 2.66952C7.76582 2.50824 7.94319 2.4005 8.14078 2.37C8.33837 2.3395 8.53998 2.38874 8.70126 2.50689C8.86254 2.62504 8.97028 2.80242 9.00078 3L9.20078 4.43C9.21483 4.52731 9.20936 4.62644 9.18467 4.7216C9.15999 4.81677 9.11658 4.90606 9.057 4.98427C8.99742 5.06247 8.92285 5.12801 8.83765 5.17708C8.75245 5.22614 8.65833 5.25773 8.56078 5.27L8.45078 5.31Z" fill="#D8D8E5"/>
<path d="M16.2508 20.74C16.0797 20.7412 15.9134 20.6831 15.7803 20.5755C15.6472 20.468 15.5555 20.3176 15.5208 20.15L15.0808 18C15.0603 17.9035 15.0591 17.8038 15.0771 17.7068C15.0952 17.6098 15.1322 17.5173 15.1861 17.4346C15.24 17.3519 15.3097 17.2807 15.3911 17.225C15.4726 17.1693 15.5642 17.1302 15.6608 17.11C15.8553 17.0739 16.0562 17.114 16.2219 17.2219C16.3876 17.3299 16.5054 17.4975 16.5508 17.69L17.0008 19.84C17.0396 20.0347 17.0005 20.2368 16.8922 20.4032C16.7838 20.5695 16.6146 20.6868 16.4208 20.73L16.2508 20.74Z" fill="#D8D8E5"/>
<path d="M20.1911 16.5C20.1315 16.5099 20.0707 16.5099 20.0111 16.5L18.6111 16.15C18.5155 16.1277 18.4253 16.0866 18.3457 16.0292C18.2662 15.9717 18.1988 15.8989 18.1476 15.8152C18.0964 15.7314 18.0624 15.6383 18.0476 15.5413C18.0327 15.4442 18.0373 15.3452 18.0611 15.25C18.0845 15.154 18.1267 15.0636 18.1851 14.9839C18.2436 14.9043 18.3172 14.837 18.4018 14.7859C18.4864 14.7348 18.5802 14.7009 18.6779 14.6861C18.7756 14.6714 18.8752 14.6761 18.9711 14.7L20.3711 15.04C20.5508 15.0823 20.7086 15.1894 20.8143 15.3408C20.92 15.4922 20.9661 15.6773 20.9438 15.8606C20.9215 16.0439 20.8324 16.2125 20.6935 16.3342C20.5546 16.4558 20.3757 16.522 20.1911 16.52V16.5Z" fill="#D8D8E5"/>
</svg>
