<svg width="92" height="38" viewBox="0 0 92 38" fill="none" xmlns="http://www.w3.org/2000/svg">
<rect width="92" height="38" rx="6" fill="#EEF6FF"/>
<path opacity="0.3" d="M17.0006 16.125C16.1252 16.164 15.3004 16.5461 14.7047 17.1887C14.1089 17.8312 13.7901 18.6825 13.8173 19.5583V23.1667C13.7811 24.0481 14.0959 24.908 14.6926 25.5578C15.2893 26.2076 16.1192 26.5944 17.0006 26.6333H27.0006C27.8834 26.5965 28.7155 26.2107 29.314 25.5606C29.9125 24.9106 30.2284 24.0495 30.1923 23.1667V19.5583C30.2194 18.6811 29.8994 17.8286 29.3019 17.1859C28.7044 16.5431 27.8774 16.1619 27.0006 16.125H17.0006Z" fill="#3E97FF"/>
<path d="M21.3754 21.7583V13.5L20.0088 14.875C19.8916 14.992 19.7327 15.0578 19.5671 15.0578C19.4015 15.0578 19.2426 14.992 19.1254 14.875C19.0677 14.8177 19.0219 14.7495 18.9907 14.6744C18.9594 14.5994 18.9434 14.5188 18.9434 14.4375C18.9434 14.3562 18.9594 14.2756 18.9907 14.2006C19.0219 14.1255 19.0677 14.0573 19.1254 14L21.5588 11.5583C21.676 11.4413 21.8348 11.3755 22.0004 11.3755C22.1661 11.3755 22.3249 11.4413 22.4421 11.5583L24.8754 14C24.9342 14.0574 24.9808 14.1262 25.0123 14.2021C25.0438 14.278 25.0596 14.3595 25.0588 14.4417C25.0592 14.5238 25.0431 14.6052 25.0117 14.681C24.9802 14.7568 24.9339 14.8256 24.8754 14.8833C24.7582 15.0004 24.5994 15.0661 24.4338 15.0661C24.2681 15.0661 24.1093 15.0004 23.9921 14.8833L22.6254 13.5V21.7583C22.6254 21.9241 22.5596 22.0831 22.4424 22.2003C22.3252 22.3175 22.1662 22.3833 22.0004 22.3833C21.8347 22.3833 21.6757 22.3175 21.5585 22.2003C21.4413 22.0831 21.3754 21.9241 21.3754 21.7583Z" fill="#3E97FF"/>
<path d="M37.8217 24V14.5455H44.1925V16.1935H39.8207V18.4464H43.8647V20.0945H39.8207V22.3519H44.2109V24H37.8217ZM47.3882 16.9091L48.6901 19.3881L50.0242 16.9091H52.0416L49.9873 20.4545L52.097 24H50.0889L48.6901 21.5487L47.3144 24H45.2831L47.3882 20.4545L45.357 16.9091H47.3882ZM53.2096 26.6591V16.9091H55.1485V18.1001H55.2362C55.3224 17.9093 55.4471 17.7154 55.6102 17.5185C55.7764 17.3184 55.9918 17.1522 56.2565 17.0199C56.5242 16.8845 56.8566 16.8168 57.2536 16.8168C57.7707 16.8168 58.2477 16.9522 58.6847 17.223C59.1218 17.4908 59.4711 17.8955 59.7327 18.4371C59.9943 18.9757 60.1251 19.6513 60.1251 20.4638C60.1251 21.2547 59.9974 21.9226 59.7419 22.4673C59.4896 23.009 59.1449 23.4199 58.7078 23.6999C58.2739 23.9769 57.7876 24.1154 57.249 24.1154C56.8674 24.1154 56.5427 24.0523 56.2749 23.9261C56.0103 23.8 55.7933 23.6415 55.624 23.4506C55.4548 23.2567 55.3255 23.0613 55.2362 22.8643H55.1762V26.6591H53.2096ZM55.1347 20.4545C55.1347 20.8762 55.1932 21.244 55.3101 21.5579C55.4271 21.8718 55.5963 22.1165 55.8179 22.2919C56.0395 22.4643 56.3088 22.5504 56.6258 22.5504C56.9459 22.5504 57.2167 22.4627 57.4383 22.2873C57.6599 22.1088 57.8276 21.8626 57.9415 21.5487C58.0584 21.2317 58.1169 20.867 58.1169 20.4545C58.1169 20.0452 58.06 19.6851 57.9461 19.3743C57.8322 19.0634 57.6645 18.8203 57.4429 18.6449C57.2213 18.4695 56.949 18.3817 56.6258 18.3817C56.3057 18.3817 56.0349 18.4664 55.8133 18.6357C55.5948 18.8049 55.4271 19.045 55.3101 19.3558C55.1932 19.6667 55.1347 20.0329 55.1347 20.4545ZM64.64 24.1385C63.9229 24.1385 63.3028 23.9862 62.7796 23.6815C62.2594 23.3737 61.8578 22.9459 61.5747 22.3981C61.2915 21.8472 61.1499 21.2086 61.1499 20.4822C61.1499 19.7498 61.2915 19.1096 61.5747 18.5618C61.8578 18.0109 62.2594 17.5831 62.7796 17.2784C63.3028 16.9706 63.9229 16.8168 64.64 16.8168C65.3571 16.8168 65.9757 16.9706 66.4958 17.2784C67.019 17.5831 67.4222 18.0109 67.7053 18.5618C67.9885 19.1096 68.1301 19.7498 68.1301 20.4822C68.1301 21.2086 67.9885 21.8472 67.7053 22.3981C67.4222 22.9459 67.019 23.3737 66.4958 23.6815C65.9757 23.9862 65.3571 24.1385 64.64 24.1385ZM64.6492 22.6151C64.9755 22.6151 65.2478 22.5227 65.4664 22.3381C65.6849 22.1503 65.8495 21.8949 65.9603 21.5717C66.0742 21.2486 66.1311 20.8808 66.1311 20.4684C66.1311 20.056 66.0742 19.6882 65.9603 19.3651C65.8495 19.0419 65.6849 18.7865 65.4664 18.5987C65.2478 18.411 64.9755 18.3171 64.6492 18.3171C64.3199 18.3171 64.0429 18.411 63.8183 18.5987C63.5967 18.7865 63.4289 19.0419 63.3151 19.3651C63.2043 19.6882 63.1489 20.056 63.1489 20.4684C63.1489 20.8808 63.2043 21.2486 63.3151 21.5717C63.4289 21.8949 63.5967 22.1503 63.8183 22.3381C64.0429 22.5227 64.3199 22.6151 64.6492 22.6151ZM69.4088 24V16.9091H71.3154V18.1463H71.3893C71.5186 17.7062 71.7355 17.3738 72.0402 17.1491C72.3449 16.9214 72.6958 16.8075 73.0928 16.8075C73.1913 16.8075 73.2974 16.8137 73.4113 16.826C73.5252 16.8383 73.6252 16.8552 73.7114 16.8768V18.6218C73.6191 18.5941 73.4913 18.5695 73.3282 18.5479C73.1651 18.5264 73.0158 18.5156 72.8804 18.5156C72.5911 18.5156 72.3326 18.5787 72.1048 18.7049C71.8802 18.828 71.7017 19.0004 71.5693 19.2219C71.4401 19.4435 71.3754 19.699 71.3754 19.9883V24H69.4088ZM78.8553 16.9091V18.3864H74.585V16.9091H78.8553ZM75.5545 15.2102H77.5211V21.821C77.5211 22.0026 77.5488 22.1442 77.6042 22.2457C77.6596 22.3442 77.7366 22.4135 77.835 22.4535C77.9366 22.4935 78.0536 22.5135 78.1859 22.5135C78.2782 22.5135 78.3706 22.5058 78.4629 22.4904C78.5552 22.4719 78.626 22.4581 78.6752 22.4489L78.9846 23.9123C78.8861 23.9431 78.7476 23.9785 78.5691 24.0185C78.3906 24.0616 78.1736 24.0877 77.9181 24.0969C77.4442 24.1154 77.0287 24.0523 76.6717 23.9077C76.3178 23.763 76.0423 23.5384 75.8453 23.2337C75.6484 22.929 75.5514 22.5443 75.5545 22.0795V15.2102Z" fill="#3E97FF"/>
</svg>
