<svg width="25" height="24" viewBox="0 0 25 24" fill="none" xmlns="http://www.w3.org/2000/svg">
<path opacity="0.3" d="M10.6698 21.53L5.16985 18.35C4.61272 18.0295 4.1501 17.5676 3.82876 17.011C3.50743 16.4543 3.33877 15.8227 3.33985 15.18V8.82C3.33877 8.17728 3.50743 7.54566 3.82876 6.98903C4.1501 6.43239 4.61272 5.97048 5.16985 5.65L10.6698 2.47C11.2269 2.15071 11.8578 1.98273 12.4998 1.98273C13.1419 1.98273 13.7728 2.15071 14.3298 2.47L19.8298 5.65C20.387 5.97048 20.8496 6.43239 21.1709 6.98903C21.4923 7.54566 21.6609 8.17728 21.6598 8.82V15.18C21.6609 15.8227 21.4923 16.4543 21.1709 17.011C20.8496 17.5676 20.387 18.0295 19.8298 18.35L14.3298 21.53C13.7728 21.8493 13.1419 22.0173 12.4998 22.0173C11.8578 22.0173 11.2269 21.8493 10.6698 21.53Z" fill="#F7C000"/>
<path d="M12.5 13.4C12.7652 13.4 13.0196 13.2946 13.2071 13.1071C13.3946 12.9196 13.5 12.6652 13.5 12.4V7.73999C13.5 7.47477 13.3946 7.22042 13.2071 7.03288C13.0196 6.84535 12.7652 6.73999 12.5 6.73999C12.2348 6.73999 11.9804 6.84535 11.7929 7.03288C11.6054 7.22042 11.5 7.47477 11.5 7.73999V12.4C11.5 12.6652 11.6054 12.9196 11.7929 13.1071C11.9804 13.2946 12.2348 13.4 12.5 13.4Z" fill="#F7C000"/>
<path d="M12.5 17.26C13.1904 17.26 13.75 16.7004 13.75 16.01C13.75 15.3197 13.1904 14.76 12.5 14.76C11.8096 14.76 11.25 15.3197 11.25 16.01C11.25 16.7004 11.8096 17.26 12.5 17.26Z" fill="black"/>
</svg>
