<svg width="25" height="24" viewBox="0 0 25 24" fill="none" xmlns="http://www.w3.org/2000/svg">
<path opacity="0.3" d="M22.0014 19.42L18.8314 16.42C18.2287 17.196 17.5063 17.8711 16.6914 18.42L19.9514 21.52C20.0885 21.6801 20.258 21.8093 20.4487 21.8991C20.6394 21.9888 20.8469 22.0371 21.0577 22.0407C21.2684 22.0443 21.4775 22.0032 21.6712 21.92C21.8649 21.8369 22.0387 21.7135 22.1812 21.5582C22.3237 21.4029 22.4316 21.2191 22.4978 21.0191C22.564 20.819 22.587 20.6071 22.5653 20.3974C22.5436 20.1878 22.4776 19.9851 22.3718 19.8029C22.266 19.6206 22.1227 19.4628 21.9514 19.34L22.0014 19.42Z" fill="#5014D0"/>
<path d="M11.6406 2C9.8606 2 8.12054 2.52784 6.6405 3.51677C5.16045 4.50571 4.0069 5.91131 3.32571 7.55585C2.64452 9.20038 2.46629 11.01 2.81356 12.7558C3.16083 14.5016 4.018 16.1053 5.27667 17.364C6.53534 18.6226 8.13899 19.4798 9.88482 19.8271C11.6306 20.1743 13.4402 19.9961 15.0848 19.3149C16.7293 18.6337 18.1349 17.4802 19.1239 16.0001C20.1128 14.5201 20.6406 12.78 20.6406 11C20.6406 8.61305 19.6924 6.32387 18.0046 4.63604C16.3168 2.94821 14.0276 2 11.6406 2ZM11.6406 17.36C10.3851 17.36 9.15783 16.9878 8.1138 16.2905C7.06977 15.5932 6.25587 14.6021 5.77496 13.4423C5.29405 12.2826 5.16771 11.0064 5.41192 9.77485C5.65613 8.54334 6.25991 7.41187 7.14698 6.52341C8.03404 5.63495 9.16457 5.02938 10.3957 4.78324C11.6268 4.53709 12.9033 4.66142 14.0637 5.1405C15.2242 5.61958 16.2167 6.43192 16.9156 7.47486C17.6146 8.51779 17.9887 9.74452 17.9906 11C17.9933 11.8351 17.8309 12.6625 17.5128 13.4347C17.1948 14.2068 16.7273 14.9086 16.1372 15.4995C15.5472 16.0905 14.8462 16.5591 14.0745 16.8784C13.3029 17.1976 12.4757 17.3613 11.6406 17.36Z" fill="#5014D0"/>
</svg>
