<svg width="24" height="24" viewBox="0 0 24 24" fill="none" xmlns="http://www.w3.org/2000/svg">
<g opacity="0.3">
<path d="M15.869 21.91L8.31902 22C7.66498 22.0093 7.03219 21.7678 6.55055 21.3253C6.0689 20.8827 5.77495 20.2725 5.72902 19.62L4.99902 9.18C4.98785 9.02726 5.0087 8.87387 5.06023 8.72965C5.11175 8.58543 5.19283 8.45356 5.29826 8.34249C5.40369 8.23141 5.53115 8.14357 5.67248 8.08459C5.81382 8.02562 5.96591 7.9968 6.11902 7.99999H17.879C18.0312 7.99692 18.1824 8.02547 18.323 8.08384C18.4636 8.14221 18.5906 8.22914 18.6959 8.33912C18.8012 8.44909 18.8825 8.57972 18.9346 8.72275C18.9868 8.86577 19.0087 9.01806 18.999 9.16999L18.409 19.49C18.3734 20.141 18.0907 20.7538 17.6187 21.2035C17.1467 21.6532 16.5209 21.9059 15.869 21.91Z" fill="#F1416C"/>
</g>
<path d="M14.2295 13.6H9.76953C9.57062 13.6 9.37985 13.521 9.2392 13.3803C9.09855 13.2397 9.01953 13.0489 9.01953 12.85C9.01953 12.6511 9.09855 12.4603 9.2392 12.3197C9.37985 12.179 9.57062 12.1 9.76953 12.1H14.2295C14.4284 12.1 14.6192 12.179 14.7599 12.3197C14.9005 12.4603 14.9795 12.6511 14.9795 12.85C14.9795 13.0489 14.9005 13.2397 14.7599 13.3803C14.6192 13.521 14.4284 13.6 14.2295 13.6Z" fill="#F1416C"/>
<path d="M13.4488 17.3H10.5488C10.3499 17.3 10.1591 17.221 10.0185 17.0803C9.87785 16.9397 9.79883 16.7489 9.79883 16.55C9.79883 16.3511 9.87785 16.1603 10.0185 16.0197C10.1591 15.879 10.3499 15.8 10.5488 15.8H13.4488C13.6477 15.8 13.8385 15.879 13.9792 16.0197C14.1198 16.1603 14.1988 16.3511 14.1988 16.55C14.1988 16.7489 14.1198 16.9397 13.9792 17.0803C13.8385 17.221 13.6477 17.3 13.4488 17.3Z" fill="#F1416C"/>
<path d="M20.2494 7.16H20.1394C14.7415 6.41778 9.26735 6.41778 3.86941 7.16C3.67604 7.18546 3.48036 7.1346 3.32386 7.01819C3.16737 6.90179 3.06238 6.729 3.03116 6.53647C2.99994 6.34395 3.04495 6.14683 3.15663 5.98693C3.26832 5.82704 3.43791 5.71694 3.62941 5.68C9.17872 4.8987 14.8101 4.8987 20.3594 5.68C20.5443 5.71036 20.7111 5.80882 20.8271 5.95601C20.943 6.1032 20.9996 6.28845 20.9859 6.4753C20.9721 6.66216 20.8888 6.83708 20.7525 6.96565C20.6162 7.09422 20.4368 7.16712 20.2494 7.17V7.16Z" fill="#F1416C"/>
<path d="M16 5.84H8L8.45 3.52C8.5302 3.09863 8.75282 2.71764 9.08054 2.4409C9.40825 2.16416 9.82115 2.00849 10.25 2H13.78C14.2167 2.00166 14.6391 2.15526 14.9749 2.43444C15.3106 2.71363 15.5387 3.10097 15.62 3.53L16 5.84Z" fill="#F1416C"/>
</svg>
