<svg width="24" height="24" viewBox="0 0 24 24" fill="none" xmlns="http://www.w3.org/2000/svg">
<path d="M12 18.94C11.8013 18.9412 11.6069 18.8831 11.4413 18.7733C11.2758 18.6635 11.1468 18.5069 11.0706 18.3235C10.9944 18.14 10.9746 17.9381 11.0137 17.7433C11.0527 17.5486 11.1489 17.3699 11.29 17.23L16.52 12L11.29 6.77001C11.1037 6.58264 10.9992 6.32919 10.9992 6.06501C10.9992 5.80082 11.1037 5.54737 11.29 5.36001C11.3829 5.26628 11.4935 5.19188 11.6154 5.14112C11.7372 5.09035 11.8679 5.06421 12 5.06421C12.132 5.06421 12.2627 5.09035 12.3845 5.14112C12.5064 5.19188 12.617 5.26628 12.71 5.36001L18.64 11.29C18.7344 11.3826 18.8096 11.4931 18.8611 11.6149C18.9126 11.7368 18.9394 11.8677 18.94 12C18.9394 12.1323 18.9126 12.2632 18.8611 12.3851C18.8096 12.5069 18.7344 12.6174 18.64 12.71L12.71 18.64C12.6173 18.7345 12.5069 18.8097 12.385 18.8612C12.2631 18.9127 12.1323 18.9395 12 18.94Z" fill="white"/>
<path opacity="0.3" d="M17.9405 13H6.06055C5.79533 13 5.54098 12.8946 5.35344 12.7071C5.1659 12.5196 5.06055 12.2652 5.06055 12C5.06055 11.7348 5.1659 11.4804 5.35344 11.2929C5.54098 11.1054 5.79533 11 6.06055 11H17.9405C18.2058 11 18.4601 11.1054 18.6477 11.2929C18.8352 11.4804 18.9405 11.7348 18.9405 12C18.9405 12.2652 18.8352 12.5196 18.6477 12.7071C18.4601 12.8946 18.2058 13 17.9405 13Z" fill="white"/>
</svg>
